<svg xmlns="http://www.w3.org/2000/svg" viewBox="0 0 373 693.31"><defs><style>.cls-1{opacity:0.6;}.cls-2{fill:#fff;}.cls-3{fill:#100e1c;}</style></defs><title>bg</title><g id="Layer_2" data-name="Layer 2"><g id="Layer_1-2" data-name="Layer 1"><g class="cls-1"><path class="cls-2" d="M36,137.38c.17.76.3.89,1.06,1.06-.76.16-.89.3-1.06,1.06-.16-.76-.3-.9-1.06-1.06C35.73,138.27,35.87,138.14,36,137.38Z"/><circle class="cls-2" cx="33.08" cy="72.7" r="1.76"/><circle class="cls-2" cx="115.65" cy="258.96" r="1.06"/><path class="cls-2" d="M30.13,290.21c.26,1.17.46,1.37,1.62,1.62-1.16.25-1.36.46-1.62,1.62-.25-1.16-.45-1.37-1.62-1.62C29.68,291.58,29.88,291.38,30.13,290.21Z"/><circle class="cls-2" cx="136.29" cy="105.57" r="1.06"/><circle class="cls-2" cx="80.26" cy="61.74" r="0.8"/><circle class="cls-2" cx="145.14" cy="6.96" r="0.8"/><path class="cls-2" d="M130.39,27c.3,1.34.53,1.58,1.88,1.87-1.35.29-1.58.53-1.88,1.87-.29-1.34-.52-1.58-1.87-1.87C129.87,28.58,130.1,28.34,130.39,27Z"/><path class="cls-2" d="M18.34,0c.23,1.06.41,1.25,1.48,1.48-1.07.23-1.25.41-1.48,1.48-.23-1.07-.42-1.25-1.48-1.48C17.92,1.25,18.11,1.06,18.34,0Z"/><path class="cls-2" d="M6.54,225.45c.1.46.18.54.65.64-.47.1-.55.18-.65.65-.1-.47-.18-.55-.64-.65C6.36,226,6.44,225.91,6.54,225.45Z"/><circle class="cls-2" cx="68.47" cy="335.66" r="1.56"/><circle class="cls-2" cx="9.49" cy="127.48" r="2.16" transform="translate(-116.76 107.43) rotate(-76.72)"/><circle class="cls-2" cx="95.01" cy="23.39" r="2.16" transform="translate(11.29 74.03) rotate(-45)"/><path class="cls-2" d="M3.59,49.72c.17.76.3.9,1.06,1.06-.76.17-.89.3-1.06,1.06-.16-.76-.3-.89-1.06-1.06C3.29,50.62,3.43,50.48,3.59,49.72Z"/><path class="cls-2" d="M65.52,38.14c.26,1.21.48,1.42,1.69,1.69-1.21.26-1.43.47-1.69,1.68-.26-1.21-.48-1.42-1.69-1.68C65,39.56,65.26,39.35,65.52,38.14Z"/><circle class="cls-2" cx="159.88" cy="302.79" r="2.13"/><path class="cls-2" d="M53.72,323.64c.17.76.3.9,1.07,1.06-.77.17-.9.3-1.07,1.06-.16-.76-.3-.89-1.06-1.06C53.42,324.54,53.56,324.4,53.72,323.64Z"/><circle class="cls-2" cx="47.83" cy="237.05" r="1.76"/><circle class="cls-2" cx="112.7" cy="384.97" r="1.06"/><path class="cls-2" d="M27.18,438.13c.26,1.16.46,1.37,1.62,1.62-1.16.25-1.36.46-1.62,1.62-.25-1.16-.45-1.37-1.62-1.62C26.73,439.5,26.93,439.29,27.18,438.13Z"/><circle class="cls-2" cx="162.83" cy="248.01" r="1.06"/><circle class="cls-2" cx="103.86" cy="182.26" r="0.8"/><circle class="cls-2" cx="171.68" cy="83.65" r="0.8"/><path class="cls-2" d="M154,147.52c.29,1.35.52,1.58,1.87,1.87-1.35.3-1.58.53-1.87,1.88-.3-1.35-.53-1.58-1.88-1.88C153.46,149.1,153.69,148.87,154,147.52Z"/><path class="cls-2" d="M41.93,93.13c.23,1.06.42,1.25,1.48,1.48-1.06.23-1.25.42-1.48,1.48-.23-1.06-.42-1.25-1.48-1.48C41.51,94.38,41.7,94.19,41.93,93.13Z"/><path class="cls-2" d="M.64,378.84c.1.47.19.55.65.65-.46.1-.55.18-.65.64-.1-.46-.18-.54-.64-.64C.46,379.39.54,379.31.64,378.84Z"/><circle class="cls-2" cx="77.32" cy="461.66" r="1.56"/><circle class="cls-2" cx="21.29" cy="313.75" r="2.16" transform="translate(-288.96 262.38) rotate(-76.72)"/><circle class="cls-2" cx="118.6" cy="116.52" r="2.16" transform="translate(-47.66 117.99) rotate(-45)"/><path class="cls-2" d="M12.44,170.25c.17.76.3.89,1.06,1.06-.76.16-.89.3-1.06,1.06-.17-.76-.3-.9-1.06-1.06C12.14,171.14,12.27,171,12.44,170.25Z"/><path class="cls-2" d="M86.16,158.66c.26,1.22.48,1.43,1.69,1.69-1.21.26-1.43.48-1.69,1.69-.26-1.21-.47-1.43-1.68-1.69C85.69,160.09,85.9,159.88,86.16,158.66Z"/><circle class="cls-2" cx="156.93" cy="450.71" r="2.13"/><path class="cls-2" d="M71.42,405.82c.16.76.3.89,1.06,1.06-.76.16-.9.3-1.06,1.06-.17-.76-.3-.9-1.06-1.06C71.12,406.71,71.25,406.58,71.42,405.82Z"/><circle class="cls-2" cx="59.62" cy="352.09" r="1.76"/><circle class="cls-2" cx="142.19" cy="527.4" r="1.06"/><path class="cls-2" d="M62.57,575.09c.25,1.16.46,1.37,1.62,1.62-1.16.25-1.37.46-1.62,1.62-.25-1.16-.46-1.37-1.62-1.62C62.11,576.46,62.32,576.25,62.57,575.09Z"/><circle class="cls-2" cx="168.73" cy="368.53" r="1.06"/><circle class="cls-2" cx="121.55" cy="346.62" r="0.8"/><circle class="cls-2" cx="186.42" cy="193.22" r="0.8"/><path class="cls-2" d="M183.47,268.05c.3,1.34.53,1.58,1.88,1.87-1.35.29-1.58.53-1.88,1.87-.29-1.34-.52-1.58-1.87-1.87C183,269.63,183.18,269.39,183.47,268.05Z"/><path class="cls-2" d="M74.37,202.7c.23,1.06.41,1.25,1.47,1.48-1.06.23-1.24.41-1.47,1.48-.23-1.07-.42-1.25-1.48-1.48C74,204,74.14,203.76,74.37,202.7Z"/><path class="cls-2" d="M24.24,493.89c.1.46.18.54.64.64-.46.1-.54.18-.64.65-.11-.47-.19-.55-.65-.65C24.05,494.43,24.13,494.35,24.24,493.89Z"/><circle class="cls-2" cx="109.75" cy="626.01" r="1.56"/><circle class="cls-2" cx="38.98" cy="395.92" r="2.16" transform="translate(-355.31 342.9) rotate(-76.72)"/><circle class="cls-2" cx="148.09" cy="215.14" r="2.16" transform="translate(-108.75 167.73) rotate(-45)"/><path class="cls-2" d="M15.39,340.08c.16.76.3.89,1.06,1.06-.76.16-.9.3-1.06,1.06-.17-.76-.3-.9-1.06-1.06C15.09,341,15.22,340.84,15.39,340.08Z"/><path class="cls-2" d="M127.45,279.19c.26,1.21.47,1.42,1.68,1.69-1.21.26-1.42.47-1.68,1.68-.27-1.21-.48-1.42-1.69-1.68C127,280.61,127.18,280.4,127.45,279.19Z"/><circle class="cls-2" cx="177.58" cy="587.67" r="2.13"/><path class="cls-2" d="M98,608.52c.16.76.3.89,1.06,1.06-.76.16-.9.3-1.06,1.06-.17-.76-.3-.9-1.06-1.06C97.66,609.41,97.79,609.28,98,608.52Z"/><circle class="cls-2" cx="92.06" cy="505.49" r="1.76"/><circle class="cls-2" cx="165.78" cy="658.88" r="1.06"/><path class="cls-2" d="M89.11,673.7c.25,1.16.46,1.37,1.62,1.62-1.16.25-1.37.46-1.62,1.62-.25-1.16-.46-1.37-1.62-1.62C88.65,675.07,88.86,674.86,89.11,673.7Z"/><circle class="cls-2" cx="180.53" cy="510.97" r="1.06"/><circle class="cls-2" cx="139.24" cy="478.1" r="0.8"/><circle class="cls-2" cx="100.91" cy="357.57" r="0.8"/><path class="cls-2" d="M174.63,416c.29,1.35.53,1.58,1.87,1.88-1.34.29-1.58.52-1.87,1.87-.29-1.35-.53-1.58-1.87-1.87C174.1,417.54,174.34,417.31,174.63,416Z"/><path class="cls-2" d="M83.21,361.57c.23,1.06.42,1.25,1.48,1.48-1.06.23-1.25.42-1.48,1.48-.23-1.06-.41-1.25-1.47-1.48C82.8,362.82,83,362.63,83.21,361.57Z"/><path class="cls-2" d="M50.78,641.81c.1.46.18.54.64.64-.46.1-.54.18-.64.64-.11-.46-.19-.54-.65-.64C50.59,642.35,50.67,642.27,50.78,641.81Z"/><circle class="cls-2" cx="133.34" cy="691.76" r="1.56"/><circle class="cls-2" cx="56.67" cy="598.62" r="2.16" transform="translate(-538.96 516.25) rotate(-76.72)"/><circle class="cls-2" cx="151.04" cy="374.01" r="2.16" transform="translate(-220.23 216.34) rotate(-45)"/><path class="cls-2" d="M44.88,471.56c.16.76.3.89,1.06,1.06-.76.16-.9.3-1.06,1.06-.17-.76-.3-.9-1.06-1.06C44.58,472.45,44.71,472.32,44.88,471.56Z"/><path class="cls-2" d="M124.5,427.11c.26,1.21.47,1.42,1.68,1.68-1.21.27-1.42.48-1.68,1.69-.27-1.21-.48-1.42-1.69-1.69C124,428.53,124.23,428.32,124.5,427.11Z"/><circle class="cls-2" cx="106.8" cy="686.28" r="2.13"/><path class="cls-2" d="M224.76,153.81c.16.76.3.9,1.06,1.06-.76.17-.9.3-1.06,1.06-.17-.76-.3-.89-1.06-1.06C224.46,154.71,224.59,154.57,224.76,153.81Z"/><circle class="cls-2" cx="218.86" cy="89.13" r="1.76"/><circle class="cls-2" cx="301.43" cy="275.4" r="1.06"/><path class="cls-2" d="M213,306.65c.26,1.16.46,1.37,1.62,1.62-1.16.25-1.36.45-1.62,1.62-.25-1.17-.45-1.37-1.62-1.62C212.51,308,212.71,307.81,213,306.65Z"/><circle class="cls-2" cx="322.07" cy="122" r="1.06"/><circle class="cls-2" cx="268.99" cy="78.18" r="0.8"/><circle class="cls-2" cx="325.02" cy="17.91" r="0.8"/><path class="cls-2" d="M319.12,43.43c.29,1.35.53,1.58,1.87,1.87-1.34.3-1.58.53-1.87,1.88-.29-1.35-.52-1.58-1.87-1.88C318.6,45,318.83,44.78,319.12,43.43Z"/><path class="cls-2" d="M204.12,11c.23,1.06.41,1.24,1.47,1.47-1.06.23-1.24.42-1.47,1.48-.23-1.06-.42-1.25-1.48-1.48C203.7,12.2,203.89,12,204.12,11Z"/><path class="cls-2" d="M195.27,241.88c.1.47.18.55.64.65-.46.1-.54.18-.64.64-.1-.46-.18-.54-.64-.64C195.09,242.43,195.17,242.35,195.27,241.88Z"/><circle class="cls-2" cx="245.4" cy="401.4" r="1.56"/><circle class="cls-2" cx="198.22" cy="143.92" r="2.16" transform="translate(12.61 303.77) rotate(-76.72)"/><circle class="cls-2" cx="283.74" cy="34.35" r="2.16" transform="translate(58.82 210.69) rotate(-45)"/><path class="cls-2" d="M192.32,66.16c.17.76.3.89,1.06,1.06-.76.16-.89.3-1.06,1.06-.16-.76-.3-.9-1.06-1.06C192,67.05,192.16,66.92,192.32,66.16Z"/><path class="cls-2" d="M251.3,54.58c.26,1.21.47,1.42,1.69,1.68-1.22.26-1.43.48-1.69,1.69-.26-1.21-.48-1.43-1.69-1.69C250.82,56,251,55.79,251.3,54.58Z"/><circle class="cls-2" cx="339.77" cy="319.22" r="2.13"/><path class="cls-2" d="M230.66,389.38c.16.76.3.9,1.06,1.06-.76.17-.9.3-1.06,1.07-.17-.77-.3-.9-1.06-1.07C230.36,390.28,230.49,390.14,230.66,389.38Z"/><circle class="cls-2" cx="242.45" cy="253.48" r="1.76"/><circle class="cls-2" cx="307.33" cy="500.01" r="1.06"/><path class="cls-2" d="M221.81,542.22c.25,1.16.46,1.37,1.62,1.62-1.16.25-1.37.46-1.62,1.62-.25-1.16-.46-1.37-1.62-1.62C221.35,543.59,221.56,543.38,221.81,542.22Z"/><circle class="cls-2" cx="348.61" cy="264.44" r="1.06"/><circle class="cls-2" cx="289.63" cy="198.7" r="0.8"/><circle class="cls-2" cx="357.46" cy="100.09" r="0.8"/><path class="cls-2" d="M336.82,164c.29,1.34.52,1.58,1.87,1.87-1.35.29-1.58.53-1.87,1.87-.29-1.34-.53-1.58-1.87-1.87C336.29,165.54,336.53,165.3,336.82,164Z"/><path class="cls-2" d="M227.71,109.57c.23,1.06.41,1.25,1.48,1.48-1.07.23-1.25.41-1.48,1.47-.23-1.06-.42-1.24-1.48-1.47C227.29,110.82,227.48,110.63,227.71,109.57Z"/><path class="cls-2" d="M189.37,488.41c.1.46.18.54.65.64-.47.11-.55.19-.65.65-.1-.46-.18-.54-.64-.65C189.19,489,189.27,488.87,189.37,488.41Z"/><circle class="cls-2" cx="266.04" cy="554.8" r="1.56"/><circle class="cls-2" cx="207.07" cy="330.18" r="2.16" transform="translate(-161.86 455.85) rotate(-76.72)"/><circle class="cls-2" cx="304.38" cy="132.96" r="2.16" transform="translate(-4.87 254.17) rotate(-45)"/><path class="cls-2" d="M201.17,186.68c.16.76.3.9,1.06,1.06-.76.17-.9.3-1.06,1.06-.17-.76-.3-.89-1.06-1.06C200.87,187.58,201,187.44,201.17,186.68Z"/><path class="cls-2" d="M274.89,175.1c.26,1.21.48,1.42,1.69,1.69-1.21.26-1.43.47-1.69,1.68-.26-1.21-.48-1.42-1.69-1.68C274.41,176.52,274.63,176.31,274.89,175.1Z"/><circle class="cls-2" cx="345.66" cy="549.32" r="2.13"/><path class="cls-2" d="M263.09,520.86c.17.77.3.9,1.07,1.07-.77.16-.9.29-1.07,1.06-.16-.77-.29-.9-1.06-1.06C262.8,521.76,262.93,521.63,263.09,520.86Z"/><circle class="cls-2" cx="257.2" cy="434.27" r="1.76"/><circle class="cls-2" cx="333.87" cy="604.1" r="1.06"/><path class="cls-2" d="M254.25,613.44c.25,1.16.45,1.37,1.62,1.62-1.17.25-1.37.45-1.62,1.62-.25-1.17-.46-1.37-1.62-1.62C253.79,614.81,254,614.6,254.25,613.44Z"/><circle class="cls-2" cx="354.51" cy="467.14" r="1.06"/><circle class="cls-2" cx="313.23" cy="423.31" r="0.8"/><circle class="cls-2" cx="372.2" cy="209.66" r="0.8"/><path class="cls-2" d="M369.25,284.48c.3,1.35.53,1.58,1.88,1.87-1.35.3-1.58.53-1.88,1.88-.29-1.35-.52-1.58-1.87-1.88C368.73,286.06,369,285.83,369.25,284.48Z"/><path class="cls-2" d="M260.15,219.14c.23,1.06.41,1.24,1.47,1.47-1.06.23-1.24.42-1.47,1.48-.23-1.06-.42-1.25-1.48-1.48C259.73,220.38,259.92,220.2,260.15,219.14Z"/><path class="cls-2" d="M215.91,570.59c.1.46.18.54.65.64-.47.1-.55.18-.65.64-.1-.46-.18-.54-.64-.64C215.73,571.13,215.81,571.05,215.91,570.59Z"/><circle class="cls-2" cx="298.48" cy="647.93" r="1.56"/><circle class="cls-2" cx="233.61" cy="516.45" r="2.16" transform="translate(-322.7 625.15) rotate(-76.72)"/><circle class="cls-2" cx="330.92" cy="231.57" r="2.16" transform="translate(-66.82 301.82) rotate(-45)"/><path class="cls-2" d="M210,411.3c.17.76.3.89,1.07,1.06-.77.16-.9.3-1.07,1.06-.16-.76-.29-.9-1.06-1.06C209.72,412.19,209.85,412.06,210,411.3Z"/><path class="cls-2" d="M310.28,295.62c.26,1.22.47,1.43,1.68,1.69-1.21.26-1.42.48-1.68,1.69-.27-1.21-.48-1.43-1.69-1.69C309.8,297.05,310,296.84,310.28,295.62Z"/><circle class="cls-2" cx="366.31" cy="620.54" r="2.13"/><path class="cls-2" d="M286.69,635.91c.16.76.29.9,1.06,1.06-.77.17-.9.3-1.06,1.06-.17-.76-.3-.89-1.07-1.06C286.39,636.81,286.52,636.67,286.69,635.91Z"/><circle class="cls-2" cx="280.79" cy="582.19" r="1.76"/><circle class="cls-2" cx="351.56" cy="664.36" r="1.06"/><path class="cls-2" d="M277.84,668.22c.25,1.16.46,1.37,1.62,1.62-1.16.25-1.37.46-1.62,1.62-.25-1.16-.46-1.37-1.62-1.62C277.38,669.59,277.59,669.38,277.84,668.22Z"/><circle class="cls-2" cx="363.36" cy="593.14" r="1.06"/><circle class="cls-2" cx="327.97" cy="565.75" r="0.8"/><circle class="cls-2" cx="292.58" cy="445.23" r="0.8"/><path class="cls-2" d="M360.41,531c.29,1.34.53,1.58,1.87,1.87-1.34.29-1.58.53-1.87,1.87-.29-1.34-.53-1.58-1.87-1.87C359.88,532.59,360.12,532.35,360.41,531Z"/><path class="cls-2" d="M271.94,454.71c.23,1.06.42,1.24,1.48,1.47-1.06.23-1.25.42-1.48,1.48-.23-1.06-.42-1.25-1.48-1.48C271.52,456,271.71,455.77,271.94,454.71Z"/><path class="cls-2" d="M239.5,652.76c.1.46.19.55.65.65-.46.1-.55.18-.65.64-.1-.46-.18-.54-.64-.64C239.32,653.31,239.4,653.22,239.5,652.76Z"/><circle class="cls-2" cx="248.35" cy="631.49" r="2.16" transform="translate(-423.31 728.11) rotate(-76.72)"/><circle class="cls-2" cx="342.71" cy="483.58" r="2.16" transform="translate(-241.56 383.97) rotate(-45)"/><path class="cls-2" d="M236.55,559.21c.17.76.3.9,1.07,1.06-.77.17-.9.3-1.07,1.07-.16-.77-.29-.9-1.06-1.07C236.26,560.11,236.39,560,236.55,559.21Z"/><path class="cls-2" d="M316.17,536.67c.27,1.21.48,1.43,1.69,1.69-1.21.26-1.42.48-1.69,1.69-.26-1.21-.47-1.43-1.68-1.69C315.7,538.1,315.91,537.88,316.17,536.67Z"/><circle class="cls-2" cx="295.53" cy="680.8" r="2.13"/><path class="cls-3" d="M337,137.38c-.17.76-.3.89-1.06,1.06.76.16.89.3,1.06,1.06.16-.76.3-.9,1.06-1.06C337.27,138.27,337.13,138.14,337,137.38Z"/><circle class="cls-3" cx="339.92" cy="72.7" r="1.76"/><circle class="cls-3" cx="257.35" cy="258.96" r="1.06"/><path class="cls-3" d="M342.87,290.21c-.26,1.17-.46,1.37-1.63,1.62,1.17.25,1.37.46,1.63,1.62.25-1.16.45-1.37,1.62-1.62C343.32,291.58,343.12,291.38,342.87,290.21Z"/><circle class="cls-3" cx="236.71" cy="105.57" r="1.06"/><circle class="cls-3" cx="292.73" cy="61.74" r="0.8"/><circle class="cls-3" cx="227.86" cy="6.96" r="0.8"/><path class="cls-3" d="M242.6,27c-.29,1.34-.52,1.58-1.87,1.87,1.35.29,1.58.53,1.87,1.87.29-1.34.53-1.58,1.87-1.87C243.13,28.58,242.89,28.34,242.6,27Z"/><path class="cls-3" d="M354.66,0c-.23,1.06-.42,1.25-1.48,1.48,1.06.23,1.25.41,1.48,1.48.23-1.07.42-1.25,1.48-1.48C355.08,1.25,354.89,1.06,354.66,0Z"/><path class="cls-3" d="M366.46,225.45c-.1.46-.19.54-.65.64.46.1.55.18.65.65.1-.47.18-.55.64-.65C366.64,226,366.56,225.91,366.46,225.45Z"/><circle class="cls-3" cx="304.53" cy="335.66" r="1.56"/><circle class="cls-3" cx="363.51" cy="127.48" r="2.16" transform="translate(-19.56 86.93) rotate(-13.28)"/><circle class="cls-3" cx="277.99" cy="23.39" r="2.16" transform="translate(64.88 203.42) rotate(-45)"/><path class="cls-3" d="M369.41,49.72c-.17.76-.3.9-1.07,1.06.77.17.9.3,1.07,1.06.16-.76.29-.89,1.06-1.06C369.7,50.62,369.57,50.48,369.41,49.72Z"/><path class="cls-3" d="M307.48,38.14c-.26,1.21-.48,1.42-1.69,1.69,1.21.26,1.43.47,1.69,1.68.26-1.21.47-1.42,1.68-1.68C308,39.56,307.74,39.35,307.48,38.14Z"/><circle class="cls-3" cx="213.11" cy="302.79" r="2.13"/><path class="cls-3" d="M319.27,323.64c-.16.76-.3.9-1.06,1.06.76.17.9.3,1.06,1.06.17-.76.3-.89,1.07-1.06C319.57,324.54,319.44,324.4,319.27,323.64Z"/><circle class="cls-3" cx="325.17" cy="237.05" r="1.76"/><circle class="cls-3" cx="260.3" cy="384.97" r="1.06"/><path class="cls-3" d="M345.81,438.13c-.25,1.16-.45,1.37-1.62,1.62,1.17.25,1.37.46,1.62,1.62.26-1.16.46-1.37,1.62-1.62C346.27,439.5,346.07,439.29,345.81,438.13Z"/><circle class="cls-3" cx="210.17" cy="248.01" r="1.06"/><circle class="cls-3" cx="269.14" cy="182.26" r="0.8"/><circle class="cls-3" cx="201.32" cy="83.65" r="0.8"/><path class="cls-3" d="M219,147.52c-.29,1.35-.53,1.58-1.87,1.87,1.34.3,1.58.53,1.87,1.88.29-1.35.53-1.58,1.87-1.88C219.54,149.1,219.3,148.87,219,147.52Z"/><path class="cls-3" d="M331.07,93.13c-.23,1.06-.42,1.25-1.48,1.48,1.06.23,1.25.42,1.48,1.48.23-1.06.42-1.25,1.48-1.48C331.49,94.38,331.3,94.19,331.07,93.13Z"/><path class="cls-3" d="M372.35,378.84c-.1.47-.18.55-.64.65.46.1.54.18.64.64.1-.46.19-.54.65-.64C372.54,379.39,372.45,379.31,372.35,378.84Z"/><circle class="cls-3" cx="295.68" cy="461.66" r="1.56"/><circle class="cls-3" cx="351.71" cy="313.75" r="2.16" transform="translate(-62.68 89.2) rotate(-13.28)"/><circle class="cls-3" cx="254.4" cy="116.52" r="2.16" transform="translate(-7.88 214.02) rotate(-45)"/><path class="cls-3" d="M360.56,170.25c-.17.76-.3.89-1.06,1.06.76.16.89.3,1.06,1.06.16-.76.3-.9,1.06-1.06C360.86,171.14,360.72,171,360.56,170.25Z"/><path class="cls-3" d="M286.84,158.66c-.27,1.22-.48,1.43-1.69,1.69,1.21.26,1.42.48,1.69,1.69.26-1.21.47-1.43,1.68-1.69C287.31,160.09,287.1,159.88,286.84,158.66Z"/><circle class="cls-3" cx="216.06" cy="450.71" r="2.13"/><path class="cls-3" d="M301.58,405.82c-.16.76-.3.89-1.06,1.06.76.16.9.3,1.06,1.06.17-.76.3-.9,1.06-1.06C301.88,406.71,301.75,406.58,301.58,405.82Z"/><circle class="cls-3" cx="313.38" cy="352.09" r="1.76"/><circle class="cls-3" cx="230.81" cy="527.4" r="1.06"/><path class="cls-3" d="M310.43,575.09c-.25,1.16-.46,1.37-1.62,1.62,1.16.25,1.37.46,1.62,1.62.25-1.16.45-1.37,1.62-1.62C310.88,576.46,310.68,576.25,310.43,575.09Z"/><circle class="cls-3" cx="204.27" cy="368.53" r="1.06"/><circle class="cls-3" cx="251.45" cy="346.62" r="0.8"/><circle class="cls-3" cx="186.57" cy="193.22" r="0.8"/><path class="cls-3" d="M189.52,268.05c-.29,1.34-.52,1.58-1.87,1.87,1.35.29,1.58.53,1.87,1.87.29-1.34.53-1.58,1.87-1.87C190.05,269.63,189.81,269.39,189.52,268.05Z"/><path class="cls-3" d="M298.63,202.7c-.23,1.06-.41,1.25-1.48,1.48,1.07.23,1.25.41,1.48,1.48.23-1.07.42-1.25,1.48-1.48C299.05,204,298.86,203.76,298.63,202.7Z"/><path class="cls-3" d="M348.76,493.89c-.1.46-.18.54-.64.64.46.1.54.18.64.65.1-.47.18-.55.65-.65C348.94,494.43,348.86,494.35,348.76,493.89Z"/><circle class="cls-3" cx="263.25" cy="626.01" r="1.56"/><circle class="cls-3" cx="334.02" cy="395.92" r="2.16" transform="translate(-82.03 87.33) rotate(-13.28)"/><circle class="cls-3" cx="224.91" cy="215.14" r="2.16" transform="translate(-86.25 222.05) rotate(-45)"/><path class="cls-3" d="M357.61,340.08c-.17.76-.3.89-1.06,1.06.76.16.89.3,1.06,1.06.16-.76.3-.9,1.06-1.06C357.91,341,357.77,340.84,357.61,340.08Z"/><path class="cls-3" d="M245.55,279.19c-.26,1.21-.47,1.42-1.68,1.69,1.21.26,1.42.47,1.68,1.68.26-1.21.48-1.42,1.69-1.68C246,280.61,245.81,280.4,245.55,279.19Z"/><circle class="cls-3" cx="195.42" cy="587.67" r="2.13"/><path class="cls-3" d="M275,608.52c-.16.76-.3.89-1.06,1.06.76.16.9.3,1.06,1.06.17-.76.3-.9,1.06-1.06C275.34,609.41,275.21,609.28,275,608.52Z"/><circle class="cls-3" cx="280.94" cy="505.49" r="1.76"/><circle class="cls-3" cx="207.22" cy="658.88" r="1.06"/><path class="cls-3" d="M283.89,673.7c-.25,1.16-.46,1.37-1.62,1.62,1.16.25,1.37.46,1.62,1.62.25-1.16.45-1.37,1.62-1.62C284.34,675.07,284.14,674.86,283.89,673.7Z"/><circle class="cls-3" cx="192.47" cy="510.97" r="1.06"/><circle class="cls-3" cx="233.76" cy="478.1" r="0.8"/><circle class="cls-3" cx="272.09" cy="357.57" r="0.8"/><path class="cls-3" d="M198.37,416c-.29,1.35-.53,1.58-1.87,1.88,1.34.29,1.58.52,1.87,1.87.29-1.35.53-1.58,1.87-1.87C198.9,417.54,198.66,417.31,198.37,416Z"/><path class="cls-3" d="M289.79,361.57c-.23,1.06-.42,1.25-1.48,1.48,1.06.23,1.25.42,1.48,1.48.23-1.06.41-1.25,1.47-1.48C290.2,362.82,290,362.63,289.79,361.57Z"/><path class="cls-3" d="M322.22,641.81c-.1.46-.18.54-.64.64.46.1.54.18.64.64.1-.46.18-.54.65-.64C322.4,642.35,322.32,642.27,322.22,641.81Z"/><circle class="cls-3" cx="239.65" cy="691.76" r="1.56"/><circle class="cls-3" cx="316.33" cy="598.62" r="2.16" transform="translate(-129.07 88.69) rotate(-13.28)"/><circle class="cls-3" cx="221.96" cy="374.01" r="2.16" transform="translate(-199.45 266.49) rotate(-45)"/><path class="cls-3" d="M328.12,471.56c-.16.76-.3.89-1.06,1.06.76.16.9.3,1.06,1.06.17-.76.3-.9,1.06-1.06C328.42,472.45,328.29,472.32,328.12,471.56Z"/><path class="cls-3" d="M248.5,427.11c-.26,1.21-.47,1.42-1.69,1.68,1.22.27,1.43.48,1.69,1.69.26-1.21.48-1.42,1.69-1.69C249,428.53,248.76,428.32,248.5,427.11Z"/><circle class="cls-3" cx="266.19" cy="686.28" r="2.13"/><path class="cls-3" d="M148.24,153.81c-.17.76-.3.9-1.06,1.06.76.17.89.3,1.06,1.06.16-.76.3-.89,1.06-1.06C148.54,154.71,148.4,154.57,148.24,153.81Z"/><circle class="cls-3" cx="154.14" cy="89.13" r="1.76"/><circle class="cls-3" cx="71.57" cy="275.4" r="1.06"/><path class="cls-3" d="M160,306.65c-.25,1.16-.45,1.37-1.62,1.62,1.17.25,1.37.45,1.62,1.62.26-1.17.46-1.37,1.62-1.62C160.49,308,160.29,307.81,160,306.65Z"/><circle class="cls-3" cx="50.93" cy="122" r="1.06"/><circle class="cls-3" cx="104.01" cy="78.18" r="0.8"/><circle class="cls-3" cx="47.98" cy="17.91" r="0.8"/><path class="cls-3" d="M53.87,43.43C53.58,44.78,53.35,45,52,45.3c1.35.3,1.58.53,1.87,1.88.3-1.35.53-1.58,1.88-1.88C54.4,45,54.17,44.78,53.87,43.43Z"/><path class="cls-3" d="M168.88,11c-.23,1.06-.42,1.24-1.48,1.47,1.06.23,1.25.42,1.48,1.48.23-1.06.42-1.25,1.48-1.48C169.3,12.2,169.11,12,168.88,11Z"/><path class="cls-3" d="M177.73,241.88c-.1.47-.18.55-.65.65.47.1.55.18.65.64.1-.46.18-.54.64-.64C177.91,242.43,177.83,242.35,177.73,241.88Z"/><circle class="cls-3" cx="127.6" cy="401.4" r="1.56"/><circle class="cls-3" cx="174.78" cy="143.92" r="2.16" transform="translate(-28.39 44.01) rotate(-13.28)"/><circle class="cls-3" cx="89.26" cy="34.35" r="2.16" transform="translate(1.86 73.18) rotate(-45)"/><path class="cls-3" d="M180.68,66.16c-.17.76-.3.89-1.06,1.06.76.16.89.3,1.06,1.06.16-.76.3-.9,1.06-1.06C181,67.05,180.84,66.92,180.68,66.16Z"/><path class="cls-3" d="M121.7,54.58c-.26,1.21-.48,1.42-1.69,1.68,1.21.26,1.43.48,1.69,1.69.26-1.21.47-1.43,1.69-1.69C122.17,56,122,55.79,121.7,54.58Z"/><circle class="cls-3" cx="33.23" cy="319.22" r="2.13"/><path class="cls-3" d="M142.34,389.38c-.16.76-.3.9-1.06,1.06.76.17.9.3,1.06,1.07.17-.77.3-.9,1.06-1.07C142.64,390.28,142.51,390.14,142.34,389.38Z"/><circle class="cls-3" cx="130.55" cy="253.48" r="1.76"/><circle class="cls-3" cx="65.67" cy="500.01" r="1.06"/><path class="cls-3" d="M151.19,542.22c-.25,1.16-.46,1.37-1.62,1.62,1.16.25,1.37.46,1.62,1.62.25-1.16.45-1.37,1.62-1.62C151.64,543.59,151.44,543.38,151.19,542.22Z"/><circle class="cls-3" cx="24.39" cy="264.44" r="1.06"/><circle class="cls-3" cx="83.36" cy="198.7" r="0.8"/><circle class="cls-3" cx="15.54" cy="100.09" r="0.8"/><path class="cls-3" d="M36.18,164c-.29,1.34-.53,1.58-1.87,1.87,1.34.29,1.58.53,1.87,1.87.29-1.34.53-1.58,1.87-1.87C36.71,165.54,36.47,165.3,36.18,164Z"/><path class="cls-3" d="M145.29,109.57c-.23,1.06-.42,1.25-1.48,1.48,1.06.23,1.25.41,1.48,1.47.23-1.06.42-1.24,1.48-1.47C145.71,110.82,145.52,110.63,145.29,109.57Z"/><path class="cls-3" d="M183.63,488.41c-.1.46-.19.54-.65.64.46.11.55.19.65.65.1-.46.18-.54.64-.65C183.81,489,183.73,488.87,183.63,488.41Z"/><circle class="cls-3" cx="106.95" cy="554.8" r="1.56"/><circle class="cls-3" cx="165.93" cy="330.18" r="2.16" transform="translate(-71.42 46.96) rotate(-13.28)"/><circle class="cls-3" cx="68.62" cy="132.96" r="2.16" transform="translate(-73.92 87.46) rotate(-45)"/><path class="cls-3" d="M171.83,186.68c-.17.76-.3.9-1.06,1.06.76.17.89.3,1.06,1.06.17-.76.3-.89,1.06-1.06C172.13,187.58,172,187.44,171.83,186.68Z"/><path class="cls-3" d="M98.11,175.1c-.26,1.21-.48,1.42-1.69,1.69,1.21.26,1.43.47,1.69,1.68.26-1.21.47-1.42,1.68-1.68C98.58,176.52,98.37,176.31,98.11,175.1Z"/><circle class="cls-3" cx="27.34" cy="549.32" r="2.13"/><path class="cls-3" d="M109.9,520.86c-.16.77-.3.9-1.06,1.07.76.16.9.29,1.06,1.06.17-.77.3-.9,1.07-1.06C110.2,521.76,110.07,521.63,109.9,520.86Z"/><circle class="cls-3" cx="115.8" cy="434.27" r="1.76"/><circle class="cls-3" cx="39.13" cy="604.1" r="1.06"/><path class="cls-3" d="M118.75,613.44c-.25,1.16-.46,1.37-1.62,1.62,1.16.25,1.37.45,1.62,1.62.25-1.17.46-1.37,1.62-1.62C119.21,614.81,119,614.6,118.75,613.44Z"/><circle class="cls-3" cx="18.49" cy="467.14" r="1.06"/><circle class="cls-3" cx="59.77" cy="423.31" r="0.8"/><circle class="cls-3" cx="0.8" cy="209.66" r="0.8"/><path class="cls-3" d="M3.74,284.48c-.29,1.35-.52,1.58-1.87,1.87,1.35.3,1.58.53,1.87,1.88.3-1.35.53-1.58,1.88-1.88C4.27,286.06,4,285.83,3.74,284.48Z"/><path class="cls-3" d="M112.85,219.14c-.23,1.06-.41,1.24-1.48,1.47,1.07.23,1.25.42,1.48,1.48.23-1.06.42-1.25,1.48-1.48C113.27,220.38,113.08,220.2,112.85,219.14Z"/><path class="cls-3" d="M157.09,570.59c-.1.46-.19.54-.65.64.46.1.55.18.65.64.1-.46.18-.54.64-.64C157.27,571.13,157.19,571.05,157.09,570.59Z"/><circle class="cls-3" cx="74.52" cy="647.93" r="1.56"/><circle class="cls-3" cx="139.39" cy="516.45" r="2.16" transform="translate(-114.93 45.84) rotate(-13.28)"/><circle class="cls-3" cx="42.08" cy="231.57" r="2.16" transform="translate(-151.42 97.58) rotate(-45)"/><path class="cls-3" d="M163,411.3c-.16.76-.3.89-1.06,1.06.76.16.9.3,1.06,1.06.17-.76.3-.9,1.06-1.06C163.28,412.19,163.15,412.06,163,411.3Z"/><path class="cls-3" d="M62.72,295.62c-.26,1.22-.47,1.43-1.68,1.69,1.21.26,1.42.48,1.68,1.69.26-1.21.48-1.43,1.69-1.69C63.2,297.05,63,296.84,62.72,295.62Z"/><circle class="cls-3" cx="6.69" cy="620.54" r="2.13"/><path class="cls-3" d="M86.31,635.91c-.16.76-.3.9-1.06,1.06.76.17.9.3,1.06,1.06.17-.76.3-.89,1.06-1.06C86.61,636.81,86.48,636.67,86.31,635.91Z"/><circle class="cls-3" cx="92.21" cy="582.19" r="1.76"/><circle class="cls-3" cx="21.44" cy="664.36" r="1.06"/><path class="cls-3" d="M95.16,668.22c-.25,1.16-.46,1.37-1.62,1.62,1.16.25,1.37.46,1.62,1.62.25-1.16.46-1.37,1.62-1.62C95.62,669.59,95.41,669.38,95.16,668.22Z"/><circle class="cls-3" cx="9.64" cy="593.14" r="1.06"/><circle class="cls-3" cx="45.03" cy="565.75" r="0.8"/><circle class="cls-3" cx="80.41" cy="445.23" r="0.8"/><path class="cls-3" d="M12.59,531c-.29,1.34-.53,1.58-1.87,1.87,1.34.29,1.58.53,1.87,1.87.29-1.34.53-1.58,1.87-1.87C13.12,532.59,12.88,532.35,12.59,531Z"/><path class="cls-3" d="M101.06,454.71c-.23,1.06-.42,1.24-1.48,1.47,1.06.23,1.25.42,1.48,1.48.23-1.06.41-1.25,1.47-1.48C101.47,456,101.29,455.77,101.06,454.71Z"/><path class="cls-3" d="M133.49,652.76c-.1.46-.18.55-.64.65.46.1.54.18.64.64.11-.46.19-.54.65-.64C133.68,653.31,133.6,653.22,133.49,652.76Z"/><circle class="cls-3" cx="124.65" cy="631.49" r="2.16" transform="translate(-141.75 45.53) rotate(-13.28)"/><circle class="cls-3" cx="30.28" cy="483.58" r="2.16" transform="translate(-333.07 163.05) rotate(-45)"/><path class="cls-3" d="M136.44,559.21c-.16.76-.3.9-1.06,1.06.76.17.9.3,1.06,1.07.17-.77.3-.9,1.06-1.07C136.74,560.11,136.61,560,136.44,559.21Z"/><path class="cls-3" d="M56.82,536.67c-.26,1.21-.47,1.43-1.68,1.69,1.21.26,1.42.48,1.68,1.69.27-1.21.48-1.43,1.69-1.69C57.3,538.1,57.09,537.88,56.82,536.67Z"/><circle class="cls-3" cx="77.47" cy="680.8" r="2.13"/></g></g></g></svg>