<svg xmlns="http://www.w3.org/2000/svg" viewBox="0 0 122.12 111.61"><title>Asset 1</title><g id="Layer_2" data-name="Layer 2"><g id="Layer_1-2" data-name="Layer 1"><path d="M8.81,111.61a8.52,8.52,0,0,1-6.25-2.56,8.87,8.87,0,0,1,0-12.47A8.43,8.43,0,0,1,8.81,94,8.49,8.49,0,0,1,15,96.58a8.8,8.8,0,0,1,0,12.47A8.58,8.58,0,0,1,8.81,111.61Z"/><path d="M114.88,107.13q-6.54,0-11.37-16.76Q101.67,84,98.89,68q-7.24,1-19,3.55L61,75.45q-3.56,9.3-12.15,27.21-2.28,4-6.18,4a7.26,7.26,0,0,1-5.08-2.06,6.62,6.62,0,0,1-2.24-5.11q0-3.4,10.73-25.93a7.56,7.56,0,0,1-1.21-4.26q0-5.76,7-7.39,8.1-15.21,20.46-35Q89.15,0,93.28,0,98.89,0,101,7.81l4.48,23.87L116,81.06l4,11.22q2.06,5.76,2.06,7.68a6.71,6.71,0,0,1-2.2,5.11A7.19,7.19,0,0,1,114.88,107.13ZM89.8,25.93,69.48,58.68q8.59-2.2,26.07-5.33Z"/></g></g></svg>